<svg width="30" height="30" viewBox="0 0 30 30" fill="none" xmlns="http://www.w3.org/2000/svg">
<circle cx="15" cy="15" r="14" stroke="#FBD797" stroke-width="2"/>
<path d="M19.5469 13.9219H15.3281V9.70312C15.3281 9.51664 15.254 9.3378 15.1222 9.20594C14.9903 9.07408 14.8115 9 14.625 9C14.4385 9 14.2597 9.07408 14.1278 9.20594C13.996 9.3378 13.9219 9.51664 13.9219 9.70312V13.9219H9.70312C9.51664 13.9219 9.3378 13.996 9.20594 14.1278C9.07408 14.2597 9 14.4385 9 14.625C9 14.8115 9.07408 14.9903 9.20594 15.1222C9.3378 15.254 9.51664 15.3281 9.70312 15.3281H13.9219V19.5469C13.9219 19.7334 13.996 19.9122 14.1278 20.0441C14.2597 20.1759 14.4385 20.25 14.625 20.25C14.8115 20.25 14.9903 20.1759 15.1222 20.0441C15.254 19.9122 15.3281 19.7334 15.3281 19.5469V15.3281H19.5469C19.7334 15.3281 19.9122 15.254 20.0441 15.1222C20.1759 14.9903 20.25 14.8115 20.25 14.625C20.25 14.4385 20.1759 14.2597 20.0441 14.1278C19.9122 13.996 19.7334 13.9219 19.5469 13.9219Z" fill="#FBD797"/>
</svg>
