<svg width="15" height="10" viewBox="0 0 15 10" fill="none" xmlns="http://www.w3.org/2000/svg">
<path d="M14.5791 0.465522C14.3125 0.167358 13.9518 0 13.5759 0C13.2 0 12.8394 0.167358 12.5728 0.465522L7.46443 6.13261L2.42724 0.465522C2.16063 0.167358 1.79999 0 1.42407 0C1.04815 0 0.687506 0.167358 0.420902 0.465522C0.287532 0.614344 0.181674 0.791402 0.109433 0.986483C0.0371927 1.18156 0 1.39081 0 1.60214C0 1.81348 0.0371927 2.02272 0.109433 2.2178C0.181674 2.41288 0.287532 2.58994 0.420902 2.73876L6.45414 9.52646C6.58642 9.67651 6.7438 9.79561 6.9172 9.87688C7.0906 9.95816 7.27658 10 7.46443 10C7.65227 10 7.83826 9.95816 8.01165 9.87688C8.18505 9.79561 8.34243 9.67651 8.47471 9.52646L14.5791 2.73876C14.7125 2.58994 14.8183 2.41288 14.8906 2.2178C14.9628 2.02272 15 1.81348 15 1.60214C15 1.39081 14.9628 1.18156 14.8906 0.986483C14.8183 0.791402 14.7125 0.614344 14.5791 0.465522Z" fill="black"/>
</svg>
