<svg width="6" height="10" viewBox="0 0 6 10" fill="none" xmlns="http://www.w3.org/2000/svg">
<path d="M2.32043 4.97901L5.72069 1.61905C5.89959 1.44121 6 1.20065 6 0.949901C6 0.699151 5.89959 0.458589 5.72069 0.280755C5.63139 0.191793 5.52516 0.121182 5.40811 0.0729955C5.29106 0.0248087 5.16552 0 5.03871 0C4.91191 0 4.78637 0.0248087 4.66932 0.0729955C4.55227 0.121182 4.44604 0.191793 4.35674 0.280755L0.284121 4.30512C0.194093 4.39336 0.122636 4.49833 0.0738712 4.614C0.0251066 4.72966 0 4.85372 0 4.97901C0 5.10431 0.0251066 5.22837 0.0738712 5.34403C0.122636 5.45969 0.194093 5.56467 0.284121 5.65291L4.35674 9.72473C4.44649 9.8127 4.55294 9.88229 4.66996 9.92953C4.78699 9.97676 4.9123 10.0007 5.03871 9.99998C5.16513 10.0007 5.29044 9.97676 5.40747 9.92953C5.52449 9.88229 5.63094 9.8127 5.72069 9.72473C5.89959 9.5469 6 9.30634 6 9.05558C6 8.80484 5.89959 8.56427 5.72069 8.38644L2.32043 4.97901Z" fill="#C5C5C5"/>
</svg>
