<svg width="15" height="10" viewBox="0 0 15 10" fill="none" xmlns="http://www.w3.org/2000/svg">
<path d="M0.420902 9.53448C0.687507 9.83264 1.04815 10 1.42407 10C1.79999 10 2.16064 9.83264 2.42724 9.53448L7.53557 3.86739L12.5728 9.53448C12.8394 9.83264 13.2 10 13.5759 10C13.9518 10 14.3125 9.83264 14.5791 9.53448C14.7125 9.38566 14.8183 9.2086 14.8906 9.01352C14.9628 8.81844 15 8.60919 15 8.39786C15 8.18652 14.9628 7.97728 14.8906 7.7822C14.8183 7.58712 14.7125 7.41006 14.5791 7.26124L8.54586 0.473535C8.41358 0.323488 8.2562 0.204393 8.0828 0.123119C7.9094 0.0418438 7.72342 -6.0699e-07 7.53557 -6.22659e-07C7.34773 -6.38329e-07 7.16175 0.0418437 6.98835 0.123119C6.81495 0.204393 6.65757 0.323488 6.52529 0.473535L0.420903 7.26124C0.287533 7.41006 0.181675 7.58712 0.109435 7.7822C0.0371944 7.97728 1.66153e-07 8.18652 1.4679e-07 8.39786C1.27427e-07 8.60919 0.0371944 8.81843 0.109435 9.01352C0.181675 9.2086 0.287533 9.38565 0.420902 9.53448Z" fill="black"/>
</svg>
