<svg width="150" height="150" viewBox="0 0 150 150" fill="none" xmlns="http://www.w3.org/2000/svg">
<path d="M95.4 50.925L63.225 83.175L50.85 70.8C50.1777 70.0149 49.3503 69.3772 48.4198 68.927C47.4893 68.4769 46.4758 68.2239 45.4429 68.184C44.41 68.1441 43.38 68.3181 42.4176 68.6952C41.4552 69.0723 40.5811 69.6442 39.8501 70.3751C39.1192 71.106 38.5473 71.9801 38.1702 72.9426C37.7932 73.905 37.6191 74.935 37.659 75.9679C37.6989 77.0008 37.9519 78.0143 38.4021 78.9448C38.8523 79.8752 39.4899 80.7026 40.275 81.375L57.9 99.075C58.6008 99.7701 59.4319 100.32 60.3457 100.693C61.2595 101.066 62.238 101.256 63.225 101.25C65.1926 101.242 67.0781 100.461 68.475 99.075L105.975 61.575C106.678 60.8778 107.236 60.0483 107.617 59.1343C107.997 58.2204 108.194 57.2401 108.194 56.25C108.194 55.2599 107.997 54.2796 107.617 53.3657C107.236 52.4517 106.678 51.6222 105.975 50.925C104.57 49.5281 102.669 48.744 100.688 48.744C98.7061 48.744 96.8052 49.5281 95.4 50.925ZM75 0C60.1664 0 45.6659 4.39867 33.3323 12.6398C20.9986 20.8809 11.3856 32.5943 5.70907 46.2987C0.0324966 60.0032 -1.45275 75.0832 1.44114 89.6317C4.33503 104.18 11.4781 117.544 21.967 128.033C32.456 138.522 45.8197 145.665 60.3683 148.559C74.9168 151.453 89.9968 149.967 103.701 144.291C117.406 138.614 129.119 129.001 137.36 116.668C145.601 104.334 150 89.8336 150 75C150 65.1508 148.06 55.3981 144.291 46.2987C140.522 37.1993 134.997 28.9314 128.033 21.967C121.069 15.0026 112.801 9.47814 103.701 5.70903C94.6019 1.93993 84.8492 0 75 0ZM75 135C63.1331 135 51.5328 131.481 41.6658 124.888C31.7989 118.295 24.1085 108.925 19.5673 97.961C15.026 86.9974 13.8378 74.9334 16.1529 63.2946C18.468 51.6557 24.1825 40.9647 32.5736 32.5736C40.9648 24.1824 51.6557 18.468 63.2946 16.1529C74.9335 13.8378 86.9975 15.026 97.961 19.5672C108.925 24.1085 118.295 31.7988 124.888 41.6658C131.481 51.5327 135 63.1331 135 75C135 90.913 128.679 106.174 117.426 117.426C106.174 128.679 90.913 135 75 135Z" fill="#87BE6D"/>
</svg>
