<svg width="10" height="12" viewBox="0 0 10 12" fill="none" xmlns="http://www.w3.org/2000/svg">
<path d="M3.88889 9.6C4.03623 9.6 4.17754 9.53679 4.28173 9.42426C4.38591 9.31174 4.44444 9.15913 4.44444 9V5.4C4.44444 5.24087 4.38591 5.08826 4.28173 4.97574C4.17754 4.86321 4.03623 4.8 3.88889 4.8C3.74155 4.8 3.60024 4.86321 3.49605 4.97574C3.39187 5.08826 3.33333 5.24087 3.33333 5.4V9C3.33333 9.15913 3.39187 9.31174 3.49605 9.42426C3.60024 9.53679 3.74155 9.6 3.88889 9.6ZM9.44444 2.4H7.22222V1.8C7.22222 1.32261 7.04663 0.864773 6.73407 0.527208C6.42151 0.189642 5.99758 0 5.55556 0H4.44444C4.00242 0 3.57849 0.189642 3.26593 0.527208C2.95337 0.864773 2.77778 1.32261 2.77778 1.8V2.4H0.555556C0.408213 2.4 0.266905 2.46321 0.162718 2.57574C0.0585316 2.68826 0 2.84087 0 3C0 3.15913 0.0585316 3.31174 0.162718 3.42426C0.266905 3.53679 0.408213 3.6 0.555556 3.6H1.11111V10.2C1.11111 10.6774 1.28671 11.1352 1.59927 11.4728C1.91183 11.8104 2.33575 12 2.77778 12H7.22222C7.66425 12 8.08817 11.8104 8.40073 11.4728C8.71329 11.1352 8.88889 10.6774 8.88889 10.2V3.6H9.44444C9.59179 3.6 9.7331 3.53679 9.83728 3.42426C9.94147 3.31174 10 3.15913 10 3C10 2.84087 9.94147 2.68826 9.83728 2.57574C9.7331 2.46321 9.59179 2.4 9.44444 2.4ZM3.88889 1.8C3.88889 1.64087 3.94742 1.48826 4.05161 1.37574C4.15579 1.26321 4.2971 1.2 4.44444 1.2H5.55556C5.7029 1.2 5.84421 1.26321 5.94839 1.37574C6.05258 1.48826 6.11111 1.64087 6.11111 1.8V2.4H3.88889V1.8ZM7.77778 10.2C7.77778 10.3591 7.71925 10.5117 7.61506 10.6243C7.51087 10.7368 7.36957 10.8 7.22222 10.8H2.77778C2.63044 10.8 2.48913 10.7368 2.38494 10.6243C2.28075 10.5117 2.22222 10.3591 2.22222 10.2V3.6H7.77778V10.2ZM6.11111 9.6C6.25845 9.6 6.39976 9.53679 6.50395 9.42426C6.60814 9.31174 6.66667 9.15913 6.66667 9V5.4C6.66667 5.24087 6.60814 5.08826 6.50395 4.97574C6.39976 4.86321 6.25845 4.8 6.11111 4.8C5.96377 4.8 5.82246 4.86321 5.71827 4.97574C5.61409 5.08826 5.55556 5.24087 5.55556 5.4V9C5.55556 9.15913 5.61409 9.31174 5.71827 9.42426C5.82246 9.53679 5.96377 9.6 6.11111 9.6Z" fill="black"/>
</svg>
