<svg width="15" height="15" viewBox="0 0 15 15" fill="none" xmlns="http://www.w3.org/2000/svg">
<path d="M14.9748 5.67125C14.9275 5.52786 14.8415 5.40191 14.7272 5.30867C14.6128 5.21544 14.4751 5.15893 14.3307 5.146L10.069 4.49531L8.15912 0.44224C8.09779 0.309695 8.00203 0.197912 7.88281 0.119698C7.76359 0.0414832 7.62574 0 7.48503 0C7.34433 0 7.20648 0.0414832 7.08726 0.119698C6.96804 0.197912 6.87228 0.309695 6.81095 0.44224L4.90105 4.48747L0.639352 5.146C0.500733 5.16662 0.370411 5.2275 0.263177 5.32173C0.155942 5.41596 0.0760887 5.53976 0.0326779 5.67909C-0.00705933 5.81525 -0.0106253 5.96016 0.0223627 6.09827C0.0553507 6.23639 0.123647 6.36249 0.219923 6.46305L3.31321 9.59889L2.56423 14.0518C2.53399 14.1995 2.54517 14.3532 2.59643 14.4944C2.64768 14.6357 2.73682 14.7584 2.85314 14.8478C2.96945 14.9373 3.10797 14.9896 3.25204 14.9986C3.39611 15.0076 3.5396 14.9728 3.66523 14.8985L7.48503 12.8053L11.3048 14.8985C11.41 14.9605 11.5287 14.993 11.6494 14.9925C11.808 14.9931 11.9628 14.941 12.0913 14.8436C12.2075 14.7565 12.2974 14.6363 12.3505 14.4974C12.4036 14.3585 12.4176 14.2066 12.3909 14.0596L11.6419 9.60673L14.7352 6.47089C14.8433 6.375 14.9232 6.24896 14.9657 6.10741C15.0081 5.96586 15.0113 5.81462 14.9748 5.67125ZM10.3686 8.80709C10.2819 8.89522 10.2169 9.00399 10.1791 9.12412C10.1412 9.24425 10.1318 9.37218 10.1514 9.49698L10.6907 12.7896L7.8745 11.2217C7.76506 11.165 7.64459 11.1355 7.52248 11.1355C7.40037 11.1355 7.27991 11.165 7.17046 11.2217L4.3543 12.7896L4.89356 9.49698C4.91321 9.37218 4.90372 9.24425 4.8659 9.12412C4.82808 9.00399 4.76305 8.89522 4.67636 8.80709L2.42942 6.45521L5.58262 5.977C5.70396 5.95933 5.8193 5.91079 5.91854 5.83561C6.01778 5.76044 6.09789 5.66094 6.15185 5.54582L7.48503 2.55893L8.89312 5.55366C8.94708 5.66878 9.02719 5.76828 9.12643 5.84345C9.22567 5.91863 9.34101 5.96717 9.46234 5.98484L12.6156 6.46305L10.3686 8.80709Z" fill="#FFDF66"/>
<path d="M4.06501 9.66242L4.08545 9.45111L3.94761 9.28965L1.2794 6.16401L5.17431 5.28119L5.39211 5.23182L5.5007 5.03668L6.98511 2.36909V12.2736L3.66425 13.8054L4.06501 9.66242Z" fill="#FFDF66" stroke="#FFDF66"/>
</svg>
