<svg width="15" height="15" viewBox="0 0 15 15" fill="none" xmlns="http://www.w3.org/2000/svg">
<path d="M7.48743 0.411499L9.90798 4.46009L14.6084 5.45169L11.404 8.94545L11.8884 13.6069L7.48743 11.7176L3.08643 13.6069L3.5709 8.94545L0.366461 5.45169L5.06688 4.46009L7.48743 0.411499Z" fill="#FFDF66"/>
<path d="M14.9749 5.27672C14.9276 5.1433 14.8416 5.02611 14.7273 4.93937C14.613 4.85262 14.4753 4.80004 14.3309 4.78801L10.0706 4.18259L8.16129 0.411475C8.09998 0.28815 8.00425 0.184144 7.88507 0.111371C7.76589 0.0385974 7.62808 0 7.48742 0C7.34677 0 7.20896 0.0385974 7.08977 0.111371C6.97059 0.184144 6.87487 0.28815 6.81356 0.411475L4.90426 4.17529L0.64391 4.78801C0.505335 4.8072 0.375055 4.86384 0.267854 4.95152C0.160654 5.03919 0.0808253 5.15438 0.0374283 5.28402C-0.00229635 5.4107 -0.00586116 5.54553 0.0271164 5.67404C0.0600939 5.80254 0.128369 5.91987 0.224614 6.01344L3.31692 8.93113L2.56818 13.0743C2.53795 13.2117 2.54913 13.3547 2.60037 13.4861C2.6516 13.6175 2.74072 13.7317 2.85699 13.8149C2.97327 13.8981 3.11175 13.9468 3.25577 13.9552C3.3998 13.9636 3.54324 13.9312 3.66883 13.862L7.48742 11.9145L11.306 13.862C11.4111 13.9198 11.5298 13.9499 11.6504 13.9496C11.809 13.9501 11.9637 13.9016 12.0922 13.811C12.2084 13.7299 12.2983 13.6181 12.3514 13.4889C12.4044 13.3596 12.4184 13.2183 12.3917 13.0815L11.6429 8.93843L14.7353 6.02073C14.8434 5.93151 14.9233 5.81424 14.9657 5.68254C15.0081 5.55084 15.0113 5.41012 14.9749 5.27672ZM10.3701 8.19441C10.2834 8.27641 10.2184 8.37761 10.1806 8.48938C10.1428 8.60116 10.1333 8.72019 10.153 8.83631L10.692 11.8999L7.87677 10.441C7.76736 10.3883 7.64693 10.3609 7.52486 10.3609C7.40279 10.3609 7.28237 10.3883 7.17295 10.441L4.35768 11.8999L4.89677 8.83631C4.91642 8.72019 4.90693 8.60116 4.86912 8.48938C4.83131 8.37761 4.7663 8.27641 4.67964 8.19441L2.43341 6.00615L5.58562 5.5612C5.70691 5.54476 5.82222 5.49959 5.92143 5.42965C6.02064 5.3597 6.10072 5.26712 6.15466 5.16002L7.48742 2.38092L8.89506 5.16731C8.949 5.27442 9.02909 5.367 9.1283 5.43694C9.22751 5.50689 9.34281 5.55206 9.46411 5.56849L12.6163 6.01344L10.3701 8.19441Z" fill="#FFDF66"/>
</svg>
