<svg width="20" height="20" viewBox="0 0 20 20" fill="none" xmlns="http://www.w3.org/2000/svg">
<path d="M13.4 8.97914L8.5 5.03968C8.34798 4.93026 8.17554 4.87266 8 4.87266C7.82446 4.87266 7.65202 4.93026 7.5 5.03968C7.35174 5.1463 7.22791 5.29857 7.14036 5.48192C7.05282 5.66528 7.00449 5.87358 7 6.08688V13.9658C7.0013 14.188 7.05019 14.4056 7.14161 14.5963C7.23303 14.787 7.36367 14.9438 7.52 15.0504C7.66543 15.1572 7.83123 15.2131 8 15.2125C8.17714 15.1973 8.34869 15.1288 8.5 15.013L13.4 11.0735C13.5403 10.9605 13.6557 10.8055 13.7356 10.6225C13.8155 10.4396 13.8574 10.2346 13.8574 10.0263C13.8574 9.81805 13.8155 9.61308 13.7356 9.43015C13.6557 9.24722 13.5403 9.09216 13.4 8.97914ZM9 11.6719V8.38074L11 10.0263L9 11.6719ZM17.38 0.688821L15.83 0.439487C11.991 -0.146496 8.109 -0.146496 4.27 0.439487L2.72 0.688821C1.97471 0.789935 1.2854 1.22971 0.783675 1.92417C0.281954 2.61864 0.0029736 3.51914 0 4.45375V15.5989C0.00635666 16.5197 0.280506 17.4063 0.771546 18.0941C1.26259 18.7819 1.93715 19.2242 2.67 19.3389L4.22 19.5758C6.13776 19.8663 8.06815 20.0079 10 19.9997C11.9323 19.9996 13.8627 19.8497 15.78 19.5509L17.33 19.314C18.0628 19.1993 18.7374 18.757 19.2285 18.0692C19.7195 17.3813 19.9936 16.4948 20 15.574V4.45375C19.9985 3.52869 19.7265 2.63605 19.235 1.94301C18.7435 1.24997 18.0662 0.804072 17.33 0.688821H17.38ZM18.05 15.6488C18.0508 15.9629 17.9565 16.2657 17.7859 16.4969C17.6154 16.728 17.3811 16.8703 17.13 16.8955L15.58 17.1323C11.9077 17.7058 8.19232 17.7058 4.52 17.1323L2.97 16.8955C2.71889 16.8703 2.48463 16.728 2.31406 16.4969C2.1435 16.2657 2.04919 15.9629 2.05 15.6488V4.45375C2.06192 4.14451 2.16055 3.85031 2.32869 3.62247C2.49683 3.39463 2.7238 3.24762 2.97 3.20708L4.47 2.92035C8.14273 2.35517 11.8573 2.35517 15.53 2.92035L17.08 3.15722C17.3262 3.19775 17.5532 3.34476 17.7213 3.5726C17.8894 3.80044 17.9881 4.09464 18 4.40388L18.05 15.6488Z" fill="white"/>
</svg>
